<svg xmlns="http://www.w3.org/2000/svg" width="140" height="24" fill="none"><path fill="#A4A6B3" d="M51.232 13.272a.43.43 0 0 1 .312.136l.848.92a4.65 4.65 0 0 1-1.736 1.336c-.683.31-1.504.464-2.464.464-.859 0-1.632-.147-2.32-.44a5.112 5.112 0 0 1-1.752-1.224A5.408 5.408 0 0 1 43 12.592a7.093 7.093 0 0 1-.384-2.376c0-.87.139-1.664.416-2.384A5.512 5.512 0 0 1 44.2 5.96a5.298 5.298 0 0 1 1.808-1.216c.699-.293 1.472-.44 2.32-.44.843 0 1.59.139 2.24.416.656.277 1.213.64 1.672 1.088l-.72 1a.63.63 0 0 1-.168.168.446.446 0 0 1-.272.072.553.553 0 0 1-.248-.064 6.46 6.46 0 0 1-.28-.168 7.072 7.072 0 0 0-.352-.224 2.685 2.685 0 0 0-.464-.216 3.298 3.298 0 0 0-.616-.168 3.94 3.94 0 0 0-.8-.072c-.517 0-.992.093-1.424.28a3.03 3.03 0 0 0-1.104.8c-.31.347-.55.773-.72 1.28-.17.501-.256 1.075-.256 1.72 0 .65.09 1.23.272 1.736.187.507.437.933.752 1.28a3.24 3.24 0 0 0 1.112.8c.427.181.885.272 1.376.272.293 0 .557-.016.792-.048.24-.032.459-.083.656-.152.203-.07.392-.157.568-.264.181-.112.36-.248.536-.408a.66.66 0 0 1 .168-.112.38.38 0 0 1 .184-.048Zm4.298-4.6a4.29 4.29 0 0 1 1.056-.728c.384-.187.835-.28 1.352-.28.448 0 .845.077 1.192.232.347.15.635.363.864.64.235.272.41.6.528.984.123.379.184.797.184 1.256V16H58.73v-5.224c0-.501-.114-.888-.344-1.16-.23-.277-.579-.416-1.048-.416-.341 0-.661.077-.96.232a3.442 3.442 0 0 0-.848.632V16h-1.976V4.112h1.976v4.56Zm11.391 3.824c-.57.027-1.05.077-1.44.152-.389.07-.701.16-.936.272-.234.112-.402.243-.504.392a.85.85 0 0 0-.152.488c0 .347.102.595.304.744.208.15.478.224.808.224.406 0 .755-.072 1.048-.216.299-.15.59-.373.872-.672v-1.384Zm-4.528-3.56c.944-.864 2.08-1.296 3.408-1.296.48 0 .91.08 1.288.24.379.155.699.373.96.656.262.277.459.61.592 1 .139.39.208.816.208 1.28V16h-.896c-.186 0-.33-.027-.432-.08-.101-.059-.181-.173-.24-.344l-.176-.592c-.208.187-.41.352-.608.496a3.74 3.74 0 0 1-.616.352 3.141 3.141 0 0 1-.688.216c-.24.053-.506.08-.8.08-.346 0-.666-.045-.96-.136a2.156 2.156 0 0 1-.76-.424 1.885 1.885 0 0 1-.496-.696 2.468 2.468 0 0 1-.176-.968 1.89 1.89 0 0 1 .44-1.208c.16-.187.366-.363.616-.528.251-.165.558-.31.92-.432a7.844 7.844 0 0 1 1.28-.296c.486-.08 1.04-.128 1.664-.144v-.48c0-.55-.117-.955-.352-1.216-.234-.267-.573-.4-1.016-.4-.32 0-.586.037-.8.112-.208.075-.392.16-.552.256l-.44.248a.841.841 0 0 1-.432.112.585.585 0 0 1-.352-.104.954.954 0 0 1-.232-.256l-.352-.632ZM72.558 8.8c.166-.165.339-.317.52-.456a3.19 3.19 0 0 1 1.248-.592c.235-.059.491-.088.768-.088.448 0 .846.077 1.192.232.347.15.635.363.864.64.235.272.411.6.528.984.123.379.184.797.184 1.256V16h-1.976v-5.224c0-.501-.114-.888-.344-1.16-.229-.277-.578-.416-1.048-.416-.341 0-.661.077-.96.232a3.439 3.439 0 0 0-.848.632V16H70.71V7.792h1.208c.256 0 .424.12.504.36l.136.648Zm10.184 2.896c.245 0 .458-.032.64-.096.181-.07.33-.163.448-.28.122-.117.213-.259.272-.424.064-.165.096-.347.096-.544 0-.405-.123-.725-.368-.96-.24-.24-.603-.36-1.088-.36-.486 0-.851.12-1.096.36-.24.235-.36.555-.36.96 0 .192.029.37.088.536.064.165.154.31.272.432.122.117.274.21.456.28.186.064.4.096.64.096Zm2.232 4.672c0-.16-.048-.29-.144-.392a.914.914 0 0 0-.392-.232 2.716 2.716 0 0 0-.584-.128 8.983 8.983 0 0 0-.704-.056c-.246-.016-.502-.03-.768-.04a8.959 8.959 0 0 1-.768-.064 1.91 1.91 0 0 0-.536.432.89.89 0 0 0-.096.976.93.93 0 0 0 .344.328c.16.09.365.16.616.208.25.053.557.08.92.08.368 0 .685-.03.952-.088a2.09 2.09 0 0 0 .656-.232.954.954 0 0 0 .384-.352.84.84 0 0 0 .12-.44Zm1.968-8.296v.736c0 .235-.142.379-.424.432l-.736.136c.112.283.168.592.168.928a2.433 2.433 0 0 1-.92 1.936c-.288.23-.63.408-1.024.536-.39.123-.811.184-1.264.184-.16 0-.315-.008-.464-.024a5.807 5.807 0 0 1-.44-.064c-.256.155-.384.328-.384.52 0 .165.074.288.224.368.154.075.357.128.608.16.25.032.536.053.856.064.32.005.648.021.984.048.336.027.664.075.984.144.32.064.605.168.856.312.25.144.45.341.6.592.154.245.232.563.232.952 0 .363-.091.715-.272 1.056a2.772 2.772 0 0 1-.776.912c-.336.267-.752.48-1.248.64-.491.165-1.051.248-1.68.248-.619 0-1.158-.061-1.616-.184-.459-.117-.84-.277-1.144-.48a2.037 2.037 0 0 1-.68-.688 1.623 1.623 0 0 1-.224-.816c0-.384.114-.704.344-.96.234-.261.554-.47.96-.624a1.378 1.378 0 0 1-.52-.448c-.128-.187-.192-.432-.192-.736 0-.123.021-.248.064-.376.048-.133.114-.264.2-.392.09-.128.202-.248.336-.36.133-.117.29-.221.472-.312a2.621 2.621 0 0 1-.984-.896c-.235-.373-.352-.81-.352-1.312 0-.405.08-.77.24-1.096.165-.33.392-.61.68-.84a3.112 3.112 0 0 1 1.032-.536c.4-.123.834-.184 1.304-.184.352 0 .682.037.992.112.309.07.592.173.848.312h2.36Zm6.4 2.88c0-.256-.037-.496-.112-.72-.07-.23-.176-.43-.32-.6a1.462 1.462 0 0 0-.552-.4 1.81 1.81 0 0 0-.768-.152c-.57 0-1.021.163-1.352.488-.325.325-.533.787-.624 1.384h3.728Zm-3.768 1.192c.032.421.107.787.224 1.096.117.304.272.557.464.76.192.197.419.347.68.448.267.096.56.144.88.144.32 0 .595-.037.824-.112.235-.075.438-.157.608-.248.176-.09.328-.173.456-.248a.787.787 0 0 1 .384-.112c.166 0 .288.061.368.184l.568.72a3.38 3.38 0 0 1-.736.648c-.272.17-.557.31-.856.416a4.752 4.752 0 0 1-.904.216c-.304.043-.6.064-.888.064a4.44 4.44 0 0 1-1.592-.28 3.636 3.636 0 0 1-1.28-.84 3.991 3.991 0 0 1-.856-1.376c-.208-.55-.312-1.184-.312-1.904 0-.56.09-1.085.272-1.576.181-.496.44-.925.776-1.288a3.698 3.698 0 0 1 1.24-.872 4.113 4.113 0 0 1 1.656-.32c.517 0 .995.083 1.432.248.438.165.814.408 1.128.728.315.315.56.704.736 1.168.181.459.272.984.272 1.576 0 .299-.032.501-.096.608-.064.101-.187.152-.368.152h-5.08ZM100.492 16V7.792h1.208c.256 0 .424.12.504.36l.128.608a4.92 4.92 0 0 1 .448-.44 2.676 2.676 0 0 1 1.76-.656c.517 0 .941.141 1.272.424.336.277.586.648.752 1.112.128-.272.288-.504.48-.696.192-.197.402-.357.632-.48.229-.123.472-.213.728-.272.261-.059.522-.088.784-.088.453 0 .856.07 1.208.208.352.139.648.341.888.608.24.267.421.592.544.976.128.384.192.824.192 1.32V16h-1.976v-5.224c0-.523-.115-.915-.344-1.176-.23-.267-.566-.4-1.008-.4-.203 0-.392.035-.568.104a1.36 1.36 0 0 0-.456.304 1.35 1.35 0 0 0-.304.488 1.906 1.906 0 0 0-.112.68V16h-1.984v-5.224c0-.55-.112-.95-.336-1.2-.219-.25-.542-.376-.968-.376-.288 0-.558.072-.808.216-.246.139-.475.33-.688.576V16h-1.976Zm17.038-8.336c.608 0 1.16.099 1.656.296.501.197.928.477 1.28.84.357.363.632.805.824 1.328.192.523.288 1.107.288 1.752 0 .65-.096 1.237-.288 1.76a3.745 3.745 0 0 1-.824 1.336 3.54 3.54 0 0 1-1.28.848 4.445 4.445 0 0 1-1.656.296 4.53 4.53 0 0 1-1.672-.296 3.616 3.616 0 0 1-1.288-.848 3.891 3.891 0 0 1-.824-1.336 5.076 5.076 0 0 1-.288-1.76c0-.645.096-1.23.288-1.752.197-.523.472-.965.824-1.328a3.67 3.67 0 0 1 1.288-.84 4.53 4.53 0 0 1 1.672-.296Zm0 6.936c.683 0 1.187-.23 1.512-.688.331-.459.496-1.13.496-2.016 0-.885-.165-1.56-.496-2.024-.325-.464-.829-.696-1.512-.696-.693 0-1.208.235-1.544.704-.331.464-.496 1.136-.496 2.016 0 .88.165 1.552.496 2.016.336.459.851.688 1.544.688Zm10.707-4.712a1.933 1.933 0 0 0-.736-.576 2.129 2.129 0 0 0-.848-.168 1.89 1.89 0 0 0-.808.168c-.24.112-.445.283-.616.512-.17.224-.301.512-.392.864-.09.347-.136.757-.136 1.232 0 .48.038.888.112 1.224.08.33.192.603.336.816.144.208.32.36.528.456.208.09.44.136.696.136.411 0 .76-.085 1.048-.256.288-.17.56-.413.816-.728v-3.68Zm1.976-5.776V16h-1.208c-.261 0-.426-.12-.496-.36l-.168-.792c-.33.379-.712.685-1.144.92-.426.235-.925.352-1.496.352-.448 0-.858-.093-1.232-.28a2.8 2.8 0 0 1-.968-.808c-.266-.357-.474-.797-.624-1.32-.144-.523-.216-1.12-.216-1.792 0-.608.083-1.173.248-1.696.166-.523.403-.976.712-1.36.31-.384.68-.683 1.112-.896a3.18 3.18 0 0 1 1.456-.328c.459 0 .851.072 1.176.216.326.144.616.339.872.584V4.112h1.976Zm7.239 6.84c0-.256-.038-.496-.112-.72-.07-.23-.176-.43-.32-.6a1.462 1.462 0 0 0-.552-.4 1.813 1.813 0 0 0-.768-.152c-.571 0-1.022.163-1.352.488-.326.325-.534.787-.624 1.384h3.728Zm-3.768 1.192c.032.421.106.787.224 1.096.117.304.272.557.464.76.192.197.418.347.68.448.266.096.56.144.88.144.32 0 .594-.037.824-.112.234-.075.437-.157.608-.248.176-.09.328-.173.456-.248a.784.784 0 0 1 .384-.112c.165 0 .288.061.368.184l.568.72a3.39 3.39 0 0 1-.736.648c-.272.17-.558.31-.856.416a4.772 4.772 0 0 1-.904.216c-.304.043-.6.064-.888.064a4.436 4.436 0 0 1-1.592-.28 3.626 3.626 0 0 1-1.28-.84 3.985 3.985 0 0 1-.856-1.376c-.208-.55-.313-1.184-.313-1.904 0-.56.091-1.085.273-1.576.181-.496.44-.925.776-1.288a3.687 3.687 0 0 1 1.24-.872c.49-.213 1.042-.32 1.656-.32.517 0 .994.083 1.432.248a3.1 3.1 0 0 1 1.128.728c.314.315.56.704.736 1.168.181.459.271.984.271 1.576 0 .299-.031.501-.095.608-.064.101-.187.152-.368.152h-5.08Z"/><path fill="#fff" d="M12 0c1.102 0 2.164.14 3.188.422a11.82 11.82 0 0 1 2.87 1.207c.891.523 1.7 1.148 2.426 1.875.727.726 1.352 1.539 1.875 2.437a12.084 12.084 0 0 1 1.22 9.246 11.82 11.82 0 0 1-1.208 2.872c-.523.89-1.148 1.699-1.875 2.425a11.916 11.916 0 0 1-2.437 1.875 12.084 12.084 0 0 1-9.247 1.22 11.82 11.82 0 0 1-2.87-1.208 12.05 12.05 0 0 1-2.426-1.875A11.912 11.912 0 0 1 1.64 18.06a12.137 12.137 0 0 1-1.207-2.86 12.168 12.168 0 0 1-.012-6.386A11.82 11.82 0 0 1 1.629 5.94c.523-.89 1.148-1.699 1.875-2.425A11.91 11.91 0 0 1 5.94 1.64 12.137 12.137 0 0 1 8.801.434 12.168 12.168 0 0 1 12 0Zm0 22.5c.96 0 1.887-.125 2.777-.375.891-.25 1.727-.602 2.508-1.055a10.136 10.136 0 0 0 2.133-1.652 10.938 10.938 0 0 0 1.64-2.121c.454-.766.81-1.602 1.067-2.508A9.847 9.847 0 0 0 22.5 12c0-.96-.125-1.887-.375-2.777-.25-.891-.602-1.727-1.055-2.508a10.133 10.133 0 0 0-1.652-2.133 10.938 10.938 0 0 0-2.121-1.64 10.588 10.588 0 0 0-2.508-1.067A9.846 9.846 0 0 0 12 1.5c-.508 0-1.008.035-1.5.105v20.79c.492.07.992.105 1.5.105Z" opacity=".5"/></svg>