<svg xmlns="http://www.w3.org/2000/svg" width="91" height="21" fill="none"><path fill="#A4A6B3" d="M48.836 14.974v1.776H42.06V5.182h2.151v9.792h4.625Zm4.434-6.56c.608 0 1.16.099 1.656.296a3.59 3.59 0 0 1 1.28.84c.357.363.632.805.824 1.328.192.523.288 1.107.288 1.752 0 .65-.096 1.237-.288 1.76a3.741 3.741 0 0 1-.824 1.336c-.352.368-.779.65-1.28.848a4.445 4.445 0 0 1-1.656.296 4.53 4.53 0 0 1-1.672-.296 3.615 3.615 0 0 1-1.288-.848 3.896 3.896 0 0 1-.824-1.336 5.076 5.076 0 0 1-.288-1.76c0-.645.096-1.23.288-1.752a3.81 3.81 0 0 1 .824-1.328 3.669 3.669 0 0 1 1.288-.84 4.53 4.53 0 0 1 1.672-.296Zm0 6.936c.683 0 1.187-.23 1.512-.688.33-.459.496-1.13.496-2.016 0-.885-.165-1.56-.496-2.024-.325-.464-.83-.696-1.512-.696-.693 0-1.208.235-1.544.704-.33.464-.496 1.136-.496 2.016 0 .88.166 1.552.496 2.016.336.459.85.688 1.544.688Zm8.493-2.904c.245 0 .459-.032.64-.096.181-.07.33-.163.448-.28.123-.117.214-.259.272-.424.064-.165.096-.347.096-.544 0-.405-.123-.725-.368-.96-.24-.24-.602-.36-1.088-.36-.485 0-.85.12-1.096.36-.24.235-.36.555-.36.96 0 .192.03.37.088.536.064.165.155.31.272.432.123.117.275.21.456.28.187.064.4.096.64.096Zm2.232 4.672c0-.16-.048-.29-.144-.392a.914.914 0 0 0-.392-.232 2.717 2.717 0 0 0-.584-.128 8.99 8.99 0 0 0-.704-.056c-.245-.016-.501-.03-.768-.04a8.952 8.952 0 0 1-.768-.064 1.906 1.906 0 0 0-.536.432.89.89 0 0 0-.096.976c.075.128.19.237.344.328.16.09.365.16.616.208.25.053.557.08.92.08.368 0 .685-.03.952-.088.267-.053.486-.13.656-.232a.954.954 0 0 0 .384-.352.84.84 0 0 0 .12-.44Zm1.968-8.296v.736c0 .235-.141.379-.424.432l-.736.136c.112.283.168.592.168.928a2.414 2.414 0 0 1-.92 1.936c-.288.23-.63.408-1.024.536-.39.123-.81.184-1.264.184-.16 0-.314-.008-.464-.024a5.8 5.8 0 0 1-.44-.064c-.256.155-.384.328-.384.52 0 .165.075.288.224.368.155.075.358.128.608.16s.536.053.856.064c.32.005.648.021.984.048.336.027.664.075.984.144.32.064.606.168.856.312s.45.341.6.592c.155.245.232.563.232.952 0 .363-.09.715-.272 1.056a2.773 2.773 0 0 1-.776.912c-.336.267-.752.48-1.248.64-.49.165-1.05.248-1.68.248-.619 0-1.157-.061-1.616-.184-.458-.117-.84-.277-1.144-.48a2.037 2.037 0 0 1-.68-.688 1.622 1.622 0 0 1-.224-.816c0-.384.115-.704.344-.96.235-.261.555-.47.96-.624a1.377 1.377 0 0 1-.52-.448c-.128-.187-.192-.432-.192-.736 0-.123.021-.248.064-.376.048-.133.115-.264.2-.392.09-.128.203-.248.336-.36.133-.117.29-.221.472-.312a2.621 2.621 0 0 1-.984-.896c-.235-.373-.352-.81-.352-1.312 0-.405.08-.77.24-1.096.166-.33.392-.61.68-.84a3.11 3.11 0 0 1 1.032-.536c.4-.123.835-.184 1.304-.184.352 0 .683.037.992.112.31.07.592.173.848.312h2.36Zm4.745-.408c.608 0 1.16.099 1.656.296a3.59 3.59 0 0 1 1.28.84c.357.363.632.805.824 1.328.192.523.288 1.107.288 1.752 0 .65-.096 1.237-.288 1.76a3.741 3.741 0 0 1-.824 1.336c-.352.368-.779.65-1.28.848a4.445 4.445 0 0 1-1.656.296 4.53 4.53 0 0 1-1.672-.296 3.615 3.615 0 0 1-1.288-.848 3.896 3.896 0 0 1-.824-1.336 5.076 5.076 0 0 1-.288-1.76c0-.645.096-1.23.288-1.752a3.81 3.81 0 0 1 .824-1.328 3.669 3.669 0 0 1 1.288-.84 4.53 4.53 0 0 1 1.672-.296Zm0 6.936c.682 0 1.186-.23 1.512-.688.33-.459.496-1.13.496-2.016 0-.885-.166-1.56-.496-2.024-.326-.464-.83-.696-1.512-.696-.694 0-1.208.235-1.544.704-.331.464-.496 1.136-.496 2.016 0 .88.165 1.552.496 2.016.336.459.85.688 1.544.688Zm12.627-6.808v8.208h-1.208c-.261 0-.426-.12-.496-.36l-.136-.656a4.491 4.491 0 0 1-1.112.832c-.405.208-.882.312-1.432.312-.448 0-.845-.075-1.192-.224a2.428 2.428 0 0 1-.864-.648 2.874 2.874 0 0 1-.536-.984 4.308 4.308 0 0 1-.176-1.264V8.542h1.976v5.216c0 .501.115.89.344 1.168.235.272.584.408 1.048.408.341 0 .662-.075.96-.224.299-.155.582-.365.848-.632V8.542h1.976Zm4.695 8.336c-.714 0-1.264-.2-1.648-.6-.378-.405-.568-.963-.568-1.672v-4.584h-.84a.385.385 0 0 1-.272-.104c-.074-.07-.112-.173-.112-.312v-.784l1.32-.216.416-2.24a.44.44 0 0 1 .152-.248.452.452 0 0 1 .288-.088h1.024v2.584h2.192v1.408H87.79v4.448c0 .256.062.456.184.6a.66.66 0 0 0 .52.216.975.975 0 0 0 .304-.04c.086-.032.158-.064.216-.096.064-.032.12-.061.168-.088a.258.258 0 0 1 .144-.048c.06 0 .107.016.144.048.038.027.078.07.12.128l.592.96c-.288.24-.618.421-.992.544-.373.123-.76.184-1.16.184Z"/><path fill="#AAA" d="M1.488 19.667H11.9V21H0V1h11.9v1.333H1.488v17.334ZM21 11l-5.66 5.083-.93-.833 4.01-3.583H5.95v-1.334h12.47L14.41 6.75l.93-.833L21 11Z"/></svg>