<svg xmlns="http://www.w3.org/2000/svg" width="158" height="39" fill="none"><path fill="#F3D7FF" d="m17.458 0 15.737 7.89-15.737 7.868L1.72 7.889 17.458 0ZM0 30.53V10.764l16.115 8.057v19.766L0 30.53Zm18.8-11.71 16.115-8.057V30.53l-16.114 8.057V18.821Z"/><path fill="#A4A6B3" d="M54.397 26.294V12.898h4.864c1.533 0 2.825.267 3.876.799 1.064.519 1.868 1.279 2.413 2.28.545.988.817 2.19.817 3.61 0 1.405-.272 2.609-.817 3.61-.544 1-1.349 1.767-2.413 2.299-1.051.532-2.343.798-3.876.798h-4.864Zm2.451-2.034h2.261c1.621 0 2.825-.386 3.61-1.159.785-.772 1.178-1.944 1.178-3.514 0-1.584-.392-2.756-1.178-3.515-.785-.773-1.989-1.16-3.61-1.16h-2.26v9.348Zm15.937 2.223c-.836 0-1.57-.196-2.204-.588-.633-.406-1.127-.982-1.482-1.73-.355-.747-.532-1.64-.532-2.678 0-1.04.177-1.926.532-2.66.355-.748.849-1.318 1.482-1.71.633-.406 1.368-.608 2.204-.608.81 0 1.52.202 2.128.607.62.393 1.032.925 1.235 1.596h-.21l.21-2.014h2.28l-.114 1.197a19.49 19.49 0 0 0-.038 1.198v7.2H75.92l-.02-1.976h.229c-.203.66-.615 1.185-1.235 1.578-.62.392-1.324.588-2.11.588Zm.665-1.823c.747 0 1.349-.26 1.805-.78.456-.531.684-1.33.684-2.393 0-1.064-.228-1.856-.684-2.375-.456-.52-1.058-.78-1.805-.78-.748 0-1.35.26-1.805.78-.456.519-.684 1.31-.684 2.375 0 1.064.222 1.862.665 2.394.456.519 1.064.779 1.824.779Zm11.232 1.823a8.646 8.646 0 0 1-2.28-.285c-.684-.202-1.26-.48-1.729-.835l.665-1.596a5.814 5.814 0 0 0 1.596.76 6.036 6.036 0 0 0 1.767.265c.633 0 1.102-.107 1.406-.323.317-.215.475-.506.475-.873 0-.292-.101-.52-.304-.684-.19-.178-.5-.31-.931-.4l-1.9-.36c-.81-.178-1.431-.482-1.862-.913-.418-.43-.627-.994-.627-1.69 0-.596.158-1.122.475-1.578.33-.456.792-.81 1.387-1.064.608-.265 1.317-.398 2.128-.398.71 0 1.374.095 1.995.285.633.19 1.165.474 1.596.854l-.684 1.54a4.495 4.495 0 0 0-1.349-.741c-.507-.178-1-.267-1.482-.267-.659 0-1.14.12-1.444.361a1.066 1.066 0 0 0-.456.893c0 .28.089.514.266.703.19.178.481.31.874.4l1.9.36c.849.165 1.488.457 1.919.875.443.405.665.962.665 1.672 0 .633-.171 1.178-.513 1.634-.342.456-.817.804-1.425 1.044-.608.241-1.317.361-2.128.361Zm6.499-.19V12.31h2.375v6.307h-.266c.29-.684.74-1.203 1.349-1.558.608-.367 1.304-.55 2.09-.55 1.14 0 1.988.322 2.546.968.557.634.836 1.603.836 2.907v5.91h-2.375v-5.796c0-.747-.146-1.285-.437-1.614-.28-.343-.729-.514-1.35-.514-.721 0-1.304.229-1.747.684-.431.444-.646 1.04-.646 1.787v5.453H91.18Zm17.339.19c-.811 0-1.52-.196-2.128-.588a2.907 2.907 0 0 1-1.216-1.634h.209v2.033h-2.356V12.309h2.375v6.347h-.228a2.829 2.829 0 0 1 1.235-1.558c.608-.393 1.311-.59 2.109-.59.849 0 1.59.203 2.223.608.633.406 1.127.982 1.482 1.73.355.734.532 1.62.532 2.66 0 1.038-.177 1.931-.532 2.678-.355.735-.855 1.305-1.501 1.71-.633.393-1.368.59-2.204.59Zm-.665-1.823c.747 0 1.349-.26 1.805-.78.469-.519.703-1.31.703-2.374s-.234-1.856-.703-2.375c-.456-.532-1.058-.799-1.805-.799-.747 0-1.349.26-1.805.78-.456.519-.684 1.31-.684 2.375 0 1.064.228 1.862.684 2.394.456.519 1.058.779 1.805.779Zm11.688 1.823c-.988 0-1.843-.202-2.565-.608a4.272 4.272 0 0 1-1.691-1.729c-.393-.747-.589-1.634-.589-2.66 0-1.026.196-1.906.589-2.64a4.274 4.274 0 0 1 1.691-1.73c.722-.405 1.577-.607 2.565-.607s1.843.202 2.565.607a4.122 4.122 0 0 1 1.691 1.73c.405.734.608 1.614.608 2.64s-.203 1.913-.608 2.66a4.121 4.121 0 0 1-1.691 1.73c-.722.405-1.577.607-2.565.607Zm0-1.823c.747 0 1.343-.26 1.786-.78.443-.531.665-1.33.665-2.393 0-1.064-.222-1.856-.665-2.375-.443-.52-1.039-.78-1.786-.78-.747 0-1.343.26-1.786.78-.443.519-.665 1.31-.665 2.375 0 1.064.222 1.862.665 2.394.443.519 1.039.779 1.786.779Zm11.017 1.823c-.836 0-1.57-.196-2.204-.588-.633-.406-1.127-.982-1.482-1.73-.354-.747-.532-1.64-.532-2.678 0-1.04.178-1.926.532-2.66.355-.748.849-1.318 1.482-1.71.634-.406 1.368-.608 2.204-.608.811 0 1.52.202 2.128.607.621.393 1.033.925 1.235 1.596h-.209l.209-2.014h2.28l-.114 1.197a19.49 19.49 0 0 0-.038 1.198v7.2h-2.356l-.019-1.976h.228c-.202.66-.614 1.185-1.235 1.578-.62.392-1.323.588-2.109.588Zm.665-1.823c.748 0 1.349-.26 1.805-.78.456-.531.684-1.33.684-2.393 0-1.064-.228-1.856-.684-2.375-.456-.52-1.057-.78-1.805-.78-.747 0-1.349.26-1.805.78-.456.519-.684 1.31-.684 2.375 0 1.064.222 1.862.665 2.394.456.519 1.064.779 1.824.779Zm7.793 1.634v-7.145c0-.405-.012-.817-.038-1.235a12.144 12.144 0 0 0-.095-1.216h2.299l.266 2.622h-.38c.127-.633.336-1.159.627-1.576a2.867 2.867 0 0 1 1.102-.931c.431-.203.9-.304 1.406-.304.228 0 .412.012.551.038.14.012.279.044.418.095l-.019 2.09a2.605 2.605 0 0 0-.627-.19 4.243 4.243 0 0 0-.627-.039c-.544 0-1.007.114-1.387.343a2.182 2.182 0 0 0-.836.95 3.435 3.435 0 0 0-.266 1.387v5.11h-2.394Zm11.454.19c-.836 0-1.577-.197-2.223-.59-.633-.405-1.127-.981-1.482-1.728-.355-.748-.532-1.64-.532-2.68 0-1.038.177-1.925.532-2.66.355-.747.849-1.317 1.482-1.71.646-.405 1.387-.607 2.223-.607.798 0 1.501.196 2.109.588.621.38 1.032.9 1.235 1.558h-.247V12.31h2.375v13.985h-2.337V24.26h.228a2.878 2.878 0 0 1-1.235 1.634c-.608.393-1.317.59-2.128.59Zm.665-1.825c.747 0 1.349-.26 1.805-.778.456-.532.684-1.33.684-2.395 0-1.064-.228-1.855-.684-2.375-.456-.519-1.058-.779-1.805-.779-.747 0-1.355.26-1.824.78-.456.519-.684 1.31-.684 2.375 0 1.064.228 1.862.684 2.394.469.519 1.077.779 1.824.779Z" opacity=".7"/></svg>